Coordinates
version=1
nRows=9
nColumns=42
inDegrees=yes

Units are S.I. units (second, meters, Newtons, ...)
If the header above contains a line with 'inDegrees', this indicates whether rotational values are in degrees (yes) or radians (no).

endheader
time	pelvis_tilt	pelvis_list	pelvis_rotation	pelvis_tx	pelvis_ty	pelvis_tz	hip_flexion_r	hip_adduction_r	hip_rotation_r	knee_angle_r	knee_adduction_r	knee_angle_r_beta	ankle_angle_r	subtalar_angle_r	mtp_angle_r	hip_flexion_l	hip_adduction_l	hip_rotation_l	knee_angle_l	knee_adduction_l	knee_angle_l_beta	ankle_angle_l	subtalar_angle_l	mtp_angle_l	lumbar_extension	lumbar_bending	lumbar_rotation	arm_flex_r	arm_add_r	arm_rot_r	elbow_flex_r	pro_sup_r	wrist_flex_r	wrist_dev_r	arm_flex_l	arm_add_l	arm_rot_l	elbow_flex_l	pro_sup_l	wrist_flex_l	wrist_dev_l
      2.13000000	     15.61312912	     -0.81345667	      3.75288614	      1.16775718	      0.84640315	     -0.20532280	     12.62593164	      1.36422092	    -13.31651593	     24.98095136	     -3.08765752	      0.43599985	     14.87267296	    -14.16816752	     -7.50012086	    -26.19787250	     -0.97735623	    -17.22386140	      8.39994346	      4.07650029	      0.14660667	     23.50501089	      9.50020908	     -7.50012086	    -28.72667143	      1.43090856	     -0.29667614	    -10.39117642	     -4.80902946	     -7.02919404	     28.88184640	     90.00000001	      0.00000000	      0.00000000	     24.94702655	    -10.66515783	      3.86190013	     46.91985177	     90.00000001	      0.00000000	      0.00000000
      2.14000000	     15.54674365	     -0.68030616	      4.02628825	      1.17860655	      0.84469017	     -0.20536845	     12.85768966	      1.21371038	    -14.15369024	     22.48493329	     -2.86538529	      0.39243612	     14.69712576	    -12.77977154	     -7.50011846	    -26.93128802	     -1.03602538	    -17.28488771	      8.45438294	      4.06920548	      0.14755682	     23.78326968	      9.79068143	     -7.50011846	    -28.60409153	      1.36094188	     -0.43113905	    -10.93281931	     -4.66791659	     -7.05665386	     28.76386466	     90.00000001	      0.00000000	      0.00000000	     25.73206090	    -10.67769601	      4.19384709	     47.61170880	     90.00000001	      0.00000000	      0.00000000
      2.15000000	     15.18190316	     -0.35955236	      4.14233334	      1.18939543	      0.84267004	     -0.20532120	     13.60941744	      0.73082417	    -15.06373786	     20.77394435	     -2.56815896	      0.36257373	     14.62160936	    -12.16962159	     -7.50011715	    -27.27378123	     -0.80507288	    -17.53891086	      8.60731525	      3.98897098	      0.15022599	     23.84668658	      9.79079363	     -7.50011715	    -28.19715190	      1.00618659	     -0.62350188	    -11.45102539	     -4.51523874	     -7.05155863	     28.68174137	     90.00000001	      0.00000000	      0.00000000	     26.43495224	    -10.66320048	      4.28524658	     48.08037364	     90.00000001	      0.00000000	      0.00000000
      2.16000000	     15.28941131	     -0.32357600	      4.56316192	      1.20062033	      0.84125330	     -0.20527102	     13.62054356	      0.61607118	    -17.63918570	     18.79207588	     -2.76600399	      0.32798360	     15.51895066	     -6.08835272	     -7.50010576	    -27.96110851	     -1.12525095	    -17.93157113	      9.18745944	      3.84353206	      0.16035142	     24.33545695	     10.93088611	     -7.50010576	    -28.23108962	      1.11106393	     -0.82977083	    -11.85556819	     -4.31221501	     -7.13354330	     28.39383427	     90.00000001	      0.00000000	      0.00000000	     26.75154081	    -11.15733733	      6.05069076	     49.61416229	     90.00000001	      0.00000000	      0.00000000
      2.17000000	     15.10167559	     -0.19786900	      4.86745789	      1.21168713	      0.83970778	     -0.20523987	     13.83610524	      0.45661582	    -18.52240579	     17.14225328	     -2.55390730	      0.29918876	     15.23997916	     -5.09347157	     -7.50010311	    -28.33838655	     -1.19060657	    -17.81486873	      9.65687724	      3.60590625	      0.16854430	     24.41723762	     10.94235150	     -7.50010311	    -27.98544595	      1.07110731	     -1.00855159	    -12.23837295	     -4.18407690	     -7.11570762	     28.24716592	     90.00000001	      0.00000000	      0.00000000	     27.34062764	    -11.01857992	      6.09908032	     49.93128115	     90.00000001	      0.00000000	      0.00000000
      2.18000000	     14.88598878	     -0.05034083	      5.16177579	      1.22287132	      0.83826442	     -0.20520969	     14.05005241	      0.24808384	    -19.44821114	     15.88387652	     -2.36734589	      0.27722594	     15.06433312	     -4.20643079	     -7.50010127	    -28.60728807	     -1.20332404	    -17.69600933	     10.25862933	      3.22214932	      0.17904686	     24.38293988	     10.96630221	     -7.50010127	    -27.70869920	      1.02066940	     -1.18160395	    -12.58629154	     -4.05790238	     -7.09422620	     28.06804113	     90.00000001	      0.00000000	      0.00000000	     27.79575466	    -10.85936720	      6.15006970	     50.29368550	     90.00000001	      0.00000000	      0.00000000
      2.19000000	     14.56033883	      0.13239312	      5.35155111	      1.23425617	      0.83684664	     -0.20507891	     14.36544387	     -0.00930667	    -20.12921260	     15.07455612	     -2.16269530	      0.26310064	     14.97348900	     -3.89903552	     -7.50010053	    -28.78209804	     -1.12211443	    -17.58588719	     10.79538558	      2.85015139	      0.18841502	     24.29986441	     10.96308160	     -7.50010053	    -27.28857997	      0.90076940	     -1.29365899	    -12.95680555	     -3.96775554	     -7.08783226	     27.93212992	     90.00000001	      0.00000000	      0.00000000	     28.10449157	    -10.73281484	      6.16966077	     50.54668430	     90.00000001	      0.00000000	      0.00000000
      2.20000000	     14.48966795	      0.13789163	      5.74155766	      1.24593348	      0.83579042	     -0.20490482	     14.49828200	     -0.20043443	    -22.67209738	     14.87806997	     -2.28749976	      0.25967131	     15.42565299	      0.43375465	     -7.50009028	    -28.97154132	     -1.52783786	    -18.09056184	     11.97658996	      2.51587029	      0.20903093	     24.31589712	     11.90392091	     -7.50009028	    -27.12123070	      1.05001768	     -1.62024857	    -12.95482581	     -3.82536701	     -7.08130684	     27.33816852	     90.00000001	      0.00000000	      0.00000000	     28.10033022	    -10.77290115	      6.34908419	     51.35821746	     90.00000001	      0.00000000	      0.00000000
      2.21000000	     14.25185815	      0.22470793	      5.97099621	      1.25770112	      0.83478395	     -0.20470468	     14.52194591	     -0.29729133	    -23.15939491	     14.59570834	     -2.19065679	      0.25474317	     15.27237915	      0.41587971	     -7.50008950	    -29.11956790	     -1.58077432	    -17.79983395	     12.76395584	      2.05225802	      0.22277305	     24.08036689	     11.87902939	     -7.50008950	    -26.77044307	      1.07030567	     -1.74296824	    -13.21782567	     -3.75828131	     -7.08730327	     27.27286723	     90.00000001	      0.00000000	      0.00000000	     28.19150011	    -10.59735311	      6.37642587	     51.47757216	     90.00000001	      0.00000000	      0.00000000
